HIERARCHY
ROOT Hips
{
  OFFSET 5.84602e-005 68.8428 3.50346
  CHANNELS 6 Xposition Yposition Zposition Zrotation Xrotation Yrotation
  JOINT Spine
  {
    OFFSET 0 8.597 -4.6522
    CHANNELS 3 Zrotation Xrotation Yrotation
    JOINT Spine1
    {
      OFFSET 0 7.8454 0.4098
      CHANNELS 3 Zrotation Xrotation Yrotation
      JOINT Spine2
      {
        OFFSET 0 9.7078 -2.1609
        CHANNELS 3 Zrotation Xrotation Yrotation
        JOINT Neck
        {
          OFFSET 0 21.8761 -0.4549
          CHANNELS 3 Zrotation Xrotation Yrotation
          JOINT Head
          {
            OFFSET 0 12.3537 3.3602
            CHANNELS 3 Zrotation Xrotation Yrotation
            End Site
            {
              OFFSET 0.0001 18.9506 0.5657
            }
          }
        }
        JOINT LeftShoulder
        {
          OFFSET 2.2086 21.1115 7.2329
          CHANNELS 3 Zrotation Xrotation Yrotation
          JOINT LeftArm
          {
            OFFSET 13.1193 3.0282 -4.8998
            CHANNELS 3 Zrotation Xrotation Yrotation
            JOINT LeftForeArm
            {
              OFFSET 27.4081 -0.0973053 -0.2375
              CHANNELS 3 Zrotation Xrotation Yrotation
              JOINT LeftHand
              {
                OFFSET 22.8641 0.0662994 -0.1369
                CHANNELS 3 Zrotation Xrotation Yrotation
                JOINT LeftHandIndex1
                {
                  OFFSET 8.8614 0.775009 2.4612
                  CHANNELS 3 Zrotation Xrotation Yrotation
                  JOINT LeftHandIndex2
                  {
                    OFFSET 3.3146 -0.808304 0.5841
                    CHANNELS 3 Zrotation Xrotation Yrotation
                    JOINT LeftHandIndex3
                    {
                      OFFSET 2.2628 -0.552002 0.3989
                      CHANNELS 3 Zrotation Xrotation Yrotation
                      End Site
                      {
                        OFFSET 1.6102 -0.4807 0.2612
                      }
                    }
                  }
                }
                JOINT LeftHandMiddle1
                {
                  OFFSET 8.9937 0.895004 0.2143
                  CHANNELS 3 Zrotation Xrotation Yrotation
                  JOINT LeftHandMiddle2
                  {
                    OFFSET 4.0984 0.0113983 -0.0242
                    CHANNELS 3 Zrotation Xrotation Yrotation
                    JOINT LeftHandMiddle3
                    {
                      OFFSET 2.2716 0.00689697 -0.0138001
                      CHANNELS 3 Zrotation Xrotation Yrotation
                      End Site
                      {
                        OFFSET 2.0404 -0.1441 0.0027
                      }
                    }
                  }
                }
                JOINT LeftHandRing1
                {
                  OFFSET 8.5234 0.597198 -2.0164
                  CHANNELS 3 Zrotation Xrotation Yrotation
                  JOINT LeftHandRing2
                  {
                    OFFSET 3.7188 -0.188293 -0.2328
                    CHANNELS 3 Zrotation Xrotation Yrotation
                    JOINT LeftHandRing3
                    {
                      OFFSET 2.1191 -0.106598 -0.1332
                      CHANNELS 3 Zrotation Xrotation Yrotation
                      End Site
                      {
                        OFFSET 1.8737 -0.2304 -0.0886
                      }
                    }
                  }
                }
                JOINT LeftHandPinky1
                {
                  OFFSET 7.9094 -0.601089 -3.4825
                  CHANNELS 3 Zrotation Xrotation Yrotation
                  JOINT LeftHandPinky2
                  {
                    OFFSET 2.2874 -0.477005 -0.6314
                    CHANNELS 3 Zrotation Xrotation Yrotation
                    JOINT LeftHandPinky3
                    {
                      OFFSET 1.6774 -0.349396 -0.4633
                      CHANNELS 3 Zrotation Xrotation Yrotation
                      End Site
                      {
                        OFFSET 1.4888 -0.4091 -0.3416
                      }
                    }
                  }
                }
                JOINT LeftHandThumb1
                {
                  OFFSET 1.833 -1.3875 1.3896
                  CHANNELS 3 Zrotation Xrotation Yrotation
                  JOINT LeftHandThumb2
                  {
                    OFFSET 3.4129 -1.121 2.5732
                    CHANNELS 3 Zrotation Xrotation Yrotation
                    JOINT LeftHandThumb3
                    {
                      OFFSET 2.2474 -0.804199 1.6192
                      CHANNELS 3 Zrotation Xrotation Yrotation
                      End Site
                      {
                        OFFSET 1.6527 -0.5689 1.1317
                      }
                    }
                  }
                }
              }
            }
          }
        }
        JOINT RightShoulder
        {
          OFFSET -2.2086 21.1115 7.2329
          CHANNELS 3 Zrotation Xrotation Yrotation
          JOINT RightArm
          {
            OFFSET -13.1216 3.0287 -4.9007
            CHANNELS 3 Zrotation Xrotation Yrotation
            JOINT RightForeArm
            {
              OFFSET -27.4081 -0.0973053 -0.2375
              CHANNELS 3 Zrotation Xrotation Yrotation
              JOINT RightHand
              {
                OFFSET -22.8641 0.0664063 -0.1369
                CHANNELS 3 Zrotation Xrotation Yrotation
                JOINT RightHandIndex1
                {
                  OFFSET -8.8614 0.774994 2.4612
                  CHANNELS 3 Zrotation Xrotation Yrotation
                  JOINT RightHandIndex2
                  {
                    OFFSET -3.3146 -0.808304 0.5841
                    CHANNELS 3 Zrotation Xrotation Yrotation
                    JOINT RightHandIndex3
                    {
                      OFFSET -2.2628 -0.552002 0.3989
                      CHANNELS 3 Zrotation Xrotation Yrotation
                      End Site
                      {
                        OFFSET -1.6102 -0.4807 0.2612
                      }
                    }
                  }
                }
                JOINT RightHandMiddle1
                {
                  OFFSET -8.9937 0.894989 0.2143
                  CHANNELS 3 Zrotation Xrotation Yrotation
                  JOINT RightHandMiddle2
                  {
                    OFFSET -4.0984 0.0113983 -0.0242
                    CHANNELS 3 Zrotation Xrotation Yrotation
                    JOINT RightHandMiddle3
                    {
                      OFFSET -2.2716 0.00691223 -0.0138001
                      CHANNELS 3 Zrotation Xrotation Yrotation
                      End Site
                      {
                        OFFSET -2.0404 -0.1441 0.0027
                      }
                    }
                  }
                }
                JOINT RightHandRing1
                {
                  OFFSET -8.5234 0.597198 -2.0164
                  CHANNELS 3 Zrotation Xrotation Yrotation
                  JOINT RightHandRing2
                  {
                    OFFSET -3.7188 -0.188309 -0.2328
                    CHANNELS 3 Zrotation Xrotation Yrotation
                    JOINT RightHandRing3
                    {
                      OFFSET -2.1191 -0.106598 -0.1332
                      CHANNELS 3 Zrotation Xrotation Yrotation
                      End Site
                      {
                        OFFSET -1.8737 -0.2304 -0.0886
                      }
                    }
                  }
                }
                JOINT RightHandPinky1
                {
                  OFFSET -7.9094 -0.601105 -3.4825
                  CHANNELS 3 Zrotation Xrotation Yrotation
                  JOINT RightHandPinky2
                  {
                    OFFSET -2.2874 -0.477005 -0.6314
                    CHANNELS 3 Zrotation Xrotation Yrotation
                    JOINT RightHandPinky3
                    {
                      OFFSET -1.6774 -0.349396 -0.4633
                      CHANNELS 3 Zrotation Xrotation Yrotation
                      End Site
                      {
                        OFFSET -1.4888 -0.4091 -0.3416
                      }
                    }
                  }
                }
                JOINT RightHandThumb1
                {
                  OFFSET -1.833 -1.38751 1.3896
                  CHANNELS 3 Zrotation Xrotation Yrotation
                  JOINT RightHandThumb2
                  {
                    OFFSET -3.41299 -1.12099 2.5732
                    CHANNELS 3 Zrotation Xrotation Yrotation
                    JOINT RightHandThumb3
                    {
                      OFFSET -2.24741 -0.804108 1.6192
                      CHANNELS 3 Zrotation Xrotation Yrotation
                      End Site
                      {
                        OFFSET -1.6527 -0.5689 1.1317
                      }
                    }
                  }
                }
              }
            }
          }
        }
      }
    }
  }
  JOINT RightUpLeg
  {
    OFFSET -9.1966 3.8861 -0.7581
    CHANNELS 3 Zrotation Xrotation Yrotation
    JOINT RightLeg
    {
      OFFSET -0.7359 -41.0265 0
      CHANNELS 3 Zrotation Xrotation Yrotation
      JOINT RightFoot
      {
        OFFSET 0 -40.2855 0
        CHANNELS 3 Zrotation Xrotation Yrotation
        JOINT RightToeBase
        {
          OFFSET 0 -5.6122 11.7359
          CHANNELS 3 Zrotation Xrotation Yrotation
          End Site
          {
            OFFSET 0 0 7.8731
          }
        }
      }
    }
  }
  JOINT LeftUpLeg
  {
    OFFSET 9.1965 3.8864 -0.7581
    CHANNELS 3 Zrotation Xrotation Yrotation
    JOINT LeftLeg
    {
      OFFSET 0.7359 -41.0268 0
      CHANNELS 3 Zrotation Xrotation Yrotation
      JOINT LeftFoot
      {
        OFFSET 0 -40.2855 0
        CHANNELS 3 Zrotation Xrotation Yrotation
        JOINT LeftToeBase
        {
          OFFSET 0 -5.6122 11.7359
          CHANNELS 3 Zrotation Xrotation Yrotation
          End Site
          {
            OFFSET 0 0 7.8731
          }
        }
      }
    }
  }
}
MOTION
Frames:	4
Frame Time:	0.0333333
28.2679 4.7802 -26.8205 89.9996 76.9891 179.985 2.40214 2.62897 -0.679552 4.84288 5.22687 -1.47126 4.84289 5.2269 -1.47126 -0.000775824 50.4171 0.000744344 -0.0447292 -30.0587 -0.0241716 -3.81083 -8.55578 -28.3044 -63.5647 -8.23836 -20.902 2.19822 -11.6479 -48.3164 -4.49401 -2.35426 -19.9937 -2.38542e-015 0 -0 2.38542e-015 0 -0 2.38542e-015 0 -0 -2.38542e-015 0 -0 -0.0146111 -8.83413e-005 1.57554e-006 -2.38542e-015 0 -3.18055e-015 -2.38542e-015 0 -0 -0.0187453 -0.00117429 5.88433e-005 2.38542e-015 3.18055e-015 3.18055e-015 -2.38542e-015 0 -0 -0.0122538 -0.00324486 0.000671328 7.30324e-007 4.78491e-007 1.14309e-009 -2.38542e-015 0 -0 2.38542e-015 0 -0 2.38542e-015 0 -0 -5.03086 -1.05687 20.9822 61.1827 -5.58987 13.2315 47.2046 -26.0413 109.947 38.505 14.2949 10.7033 3.97569e-015 7.95139e-016 3.18055e-015 0 1.59028e-015 -0 5.96354e-015 3.97569e-015 -3.18055e-015 3.97569e-015 7.95139e-016 3.18055e-015 0.0149597 -9.00235e-005 -2.1217e-006 -7.95139e-016 -2.38542e-015 6.36111e-015 3.97569e-015 7.95139e-016 3.18055e-015 0.0190128 -0.00119171 -6.02603e-005 1.19271e-015 -4.77083e-015 -3.18055e-015 3.97569e-015 7.95139e-016 3.18055e-015 0.0122557 -0.0032451 -0.000677511 2.38542e-015 1.59028e-015 -6.36111e-015 3.97569e-015 7.95139e-016 3.18055e-015 0 1.59028e-015 -0 5.96354e-015 3.97569e-015 -3.18055e-015 3.48317 -19.2439 9.52402 48.6923 55.5564 -42.9586 7.22755 28.6843 -9.9642 6.98489e-009 -1.01226e-007 -5.93375e-007 3.46444 -38.0071 2.90009 -2.62475 34.6004 2.22944 5.08683 5.3587 0.489859 2.9365e-006 5.03943e-008 3.82645e-006 
28.2679 4.78 -26.8205 89.9996 76.9891 179.985 2.40306 2.44972 -0.656137 4.84065 4.86957 -1.41651 4.84067 4.86957 -1.41652 -0.000506643 50.9456 0.000414184 -0.043986 -28.0642 -0.0224612 -4.73801 -8.33549 -29.2835 -62.5847 -8.72683 -20.7308 2.17712 -11.6329 -46.4204 -4.79883 -2.20624 -20.7088 1.64138e-006 -1.3021e-007 3.50194e-007 -3.18055e-015 6.36111e-015 3.18055e-015 1.64138e-006 -1.3021e-007 3.50194e-007 1.64138e-006 -1.3021e-007 3.50194e-007 -0.0145956 -8.84457e-005 1.34735e-007 1.64135e-006 -1.30255e-007 3.50176e-007 1.64138e-006 -1.3021e-007 3.50194e-007 -0.0187286 -0.00117248 6.38092e-005 2.67597e-006 9.12399e-007 9.85365e-007 1.64138e-006 -1.3021e-007 3.50194e-007 -0.0122894 -0.00325218 0.000680369 1.64136e-006 -1.30266e-007 3.50135e-007 1.64138e-006 -1.3021e-007 3.50194e-007 -3.18055e-015 6.36111e-015 3.18055e-015 1.64138e-006 -1.3021e-007 3.50194e-007 -4.76064 -0.95204 21.2154 61.0241 -5.70682 13.1507 47.4101 -26.6449 109.463 38.7845 14.4935 10.4186 -3.57812e-015 1.59028e-015 -6.36111e-015 4.77083e-015 4.77083e-015 -3.18055e-015 3.18055e-015 7.15625e-015 -3.18055e-015 -3.57812e-015 1.59028e-015 -6.36111e-015 0.0149696 -9.21446e-005 7.08472e-007 4.77083e-015 3.18055e-015 -3.18055e-015 -3.57812e-015 1.59028e-015 -6.36111e-015 0.0189825 -0.00119033 -5.99686e-005 -2.78299e-015 0 -6.36111e-015 -3.57812e-015 1.59028e-015 -6.36111e-015 0.0123055 -0.00325872 -0.000678527 5.56597e-015 -5.56597e-015 -3.18055e-015 -3.57812e-015 1.59028e-015 -6.36111e-015 4.77083e-015 4.77083e-015 -3.18055e-015 3.18055e-015 7.15625e-015 -3.18055e-015 3.08928 -19.1313 8.85658 48.685 55.5535 -42.9781 6.51807 28.8209 -9.30684 -3.99068e-008 -4.41583e-008 1.53406e-006 3.46427 -38.007 2.90002 -2.62471 34.6002 2.22947 5.08695 5.35875 0.489842 7.95139e-016 1.59028e-015 -1.39149e-015 
28.2678 4.77983 -26.8205 89.9996 76.9891 179.985 2.40387 2.28898 -0.635107 4.83875 4.54911 -1.36744 4.83874 4.54914 -1.36744 -0.000261507 51.4197 0.000274408 -0.0433547 -26.2671 -0.020961 -5.56711 -8.12319 -30.1592 -61.7024 -9.16262 -20.5689 2.15901 -11.6237 -44.7132 -5.0708 -2.06989 -21.3496 1.03247e-006 1.05045e-006 6.36936e-007 -3.63327e-007 3.67043e-007 -5.85305e-007 -2.38542e-015 3.18055e-015 -0 1.03247e-006 1.05045e-006 6.36936e-007 -0.0146288 -8.9452e-005 -1.42253e-006 -1.59028e-015 9.54166e-015 4.77083e-015 1.03247e-006 1.05045e-006 6.36936e-007 -0.018782 -0.00117572 5.79093e-005 -1.27222e-014 6.36111e-015 1.59028e-015 1.03247e-006 1.05045e-006 6.36936e-007 -0.0122858 -0.00325031 0.000675841 1.11319e-014 -3.18055e-015 -0 1.03247e-006 1.05045e-006 6.36936e-007 -3.63327e-007 3.67043e-007 -5.85305e-007 -2.38542e-015 3.18055e-015 -0 -4.51857 -0.85697 21.424 60.8823 -5.81107 13.0782 47.5912 -27.1886 109.03 39.0362 14.6704 10.1621 1.98785e-015 3.97569e-015 -0 -1.63711e-006 3.29729e-007 1.71091e-007 -1.19271e-015 1.59028e-015 -6.36111e-015 1.98785e-015 3.97569e-015 -0 0.0149602 -9.01631e-005 1.33841e-006 -7.95139e-016 -6.36111e-015 3.18055e-015 1.98785e-015 3.97569e-015 -0 0.0190181 -0.00119229 -5.96239e-005 -8.51993e-007 2.69682e-008 7.77708e-007 1.98785e-015 3.97569e-015 -0 0.012304 -0.0032581 -0.000676934 3.18055e-015 -2.38542e-015 -6.36111e-015 1.98785e-015 3.97569e-015 -0 -1.63711e-006 3.29729e-007 1.71091e-007 -1.19271e-015 1.59028e-015 -6.36111e-015 2.73729 -19.0265 8.25902 48.6784 55.5508 -42.9954 5.87943 28.9369 -8.71486 -6.77755e-009 1.00836e-007 5.93461e-007 3.46407 -38.007 2.89993 -2.62471 34.6002 2.22951 5.08708 5.35875 0.489832 2.4173e-007 3.82645e-006 -5.03948e-008 
28.2678 4.77965 -26.8205 89.9996 76.9891 179.985 2.40466 2.12823 -0.614079 4.837 4.22863 -1.3184 4.83698 4.22863 -1.31839 -9.12705e-005 51.8937 5.86406e-005 -0.0428081 -24.4632 -0.0195009 -6.39369 -7.8981 -31.0325 -60.8168 -9.59637 -20.3998 2.14057 -11.6149 -43.0001 -5.34137 -1.93041 -21.9901 -3.18055e-015 -3.18055e-015 -0 5.56597e-015 -3.18055e-015 -3.18055e-015 3.18055e-015 0 -3.18055e-015 -3.18055e-015 -3.18055e-015 -0 -0.0145926 -8.92728e-005 -5.47059e-007 1.59028e-015 3.18055e-015 1.59028e-015 -3.18055e-015 -3.18055e-015 -0 -0.0187525 -0.00117855 5.91885e-005 1.02635e-006 1.05681e-006 6.39235e-007 -3.18055e-015 -3.18055e-015 -0 -0.0122848 -0.00324786 0.000679324 1.02716e-006 1.05659e-006 6.39233e-007 -3.18055e-015 -3.18055e-015 -0 5.56597e-015 -3.18055e-015 -3.18055e-015 3.18055e-015 0 -3.18055e-015 -4.27693 -0.761056 21.6322 60.7404 -5.91513 13.0055 47.7686 -27.7339 108.597 39.2889 14.8461 9.90459 -2.65475e-006 4.22649e-008 -6.89406e-007 1.34738e-006 1.92474e-006 5.48357e-007 -2.65475e-006 4.22647e-008 -6.89406e-007 -2.65475e-006 4.22649e-008 -6.89406e-007 0.0149377 -9.03429e-005 -2.93184e-007 -1.80804e-006 1.76479e-008 -1.46625e-006 -2.65475e-006 4.22649e-008 -6.89406e-007 0.019009 -0.00118978 -5.6013e-005 -1.80803e-006 1.75887e-008 -1.46624e-006 -2.65475e-006 4.22649e-008 -6.89406e-007 0.0122662 -0.00324559 -0.000670697 -1.80809e-006 1.76538e-008 -1.46621e-006 -2.65475e-006 4.22649e-008 -6.89406e-007 1.34738e-006 1.92474e-006 5.48357e-007 -2.65475e-006 4.22647e-008 -6.89406e-007 2.38651 -18.9184 7.66226 48.672 55.5481 -43.0127 5.23857 29.0471 -8.12067 -2.23633e-015 0 -3.18055e-015 3.46392 -38.0069 2.8999 -2.6247 34.6001 2.22956 5.0872 5.35879 0.489822 -3.31918e-006 -1.35763e-005 -3.2422e-006 
